<?xml version="1.0" encoding="iso-8859-1"?>
<!-- Generator: Adobe Illustrator 19.0.0, SVG Export Plug-In . SVG Version: 6.00 Build 0)  -->
<svg xmlns="http://www.w3.org/2000/svg" xmlns:xlink="http://www.w3.org/1999/xlink" version="1.1" id="Layer_1" x="0px" y="0px" viewBox="0 0 512 512" style="enable-background:new 0 0 512 512;" xml:space="preserve">
<path style="fill:#707487;" d="M127.733,42.221H25.119c-9.446,0-17.102,7.656-17.102,17.102v188.125  c0,9.446,7.656,17.102,17.102,17.102h102.614c9.446,0,17.102-7.656,17.102-17.102V59.324  C144.835,49.878,137.179,42.221,127.733,42.221z"/>
<rect x="8.017" y="76.426" style="fill:#00C3FF;" width="136.818" height="153.921"/>
<g>
	<path style="fill:#5B5D6E;" d="M83.908,257.069H68.944c-5.313,0-9.62-4.307-9.62-9.62l0,0c0-5.313,4.307-9.62,9.62-9.62h14.965   c5.313,0,9.62,4.307,9.62,9.62l0,0C93.528,252.762,89.222,257.069,83.908,257.069z"/>
	<path style="fill:#5B5D6E;" d="M486.881,435.574H196.142V247.449c0-9.446,7.656-17.102,17.102-17.102h256.534   c9.446,0,17.102,7.656,17.102,17.102V435.574z"/>
</g>
<path style="fill:#E4EAF8;" d="M495.432,469.779H187.591c-4.722,0-8.551-3.829-8.551-8.551v-17.102c0-4.722,3.829-8.551,8.551-8.551  h307.841c4.722,0,8.551,3.829,8.551,8.551v17.102C503.983,465.95,500.155,469.779,495.432,469.779z"/>
<rect x="230.347" y="264.551" style="fill:#00C3FF;" width="222.33" height="136.818"/>
<path d="M495.432,427.557h-0.534V247.449c0-13.851-11.268-25.119-25.119-25.119h-256.53c-13.851,0-25.119,11.268-25.119,25.119  v180.109h-0.534c-9.136,0-16.568,7.432-16.568,16.568v17.102c0,9.136,7.432,16.568,16.568,16.568h307.837  c9.136,0,16.568-7.432,16.568-16.568v-17.102C512,434.989,504.568,427.557,495.432,427.557z M204.163,247.449  c0-5.01,4.076-9.086,9.086-9.086h256.53c5.01,0,9.086,4.076,9.086,9.086v180.109H204.163V247.449z M495.967,461.228  c0,0.295-0.241,0.534-0.534,0.534H187.595c-0.294,0-0.534-0.239-0.534-0.534v-17.102c0-0.295,0.241-0.534,0.534-0.534h307.837  c0.294,0,0.534,0.239,0.534,0.534V461.228z"/>
<path d="M256.005,393.353h-17.638V272.568h154.455c4.428,0,8.017-3.589,8.017-8.017c0-4.427-3.588-8.017-8.017-8.017H230.351  c-4.428,0-8.017,3.589-8.017,8.017V401.37c0,4.427,3.588,8.017,8.017,8.017h25.655c4.428,0,8.017-3.589,8.017-8.017  C264.022,396.942,260.433,393.353,256.005,393.353z"/>
<path d="M452.676,256.534h-25.655c-4.428,0-8.017,3.589-8.017,8.017c0,4.427,3.588,8.017,8.017,8.017h17.638v120.785H290.205  c-4.428,0-8.017,3.589-8.017,8.017c0,4.427,3.588,8.017,8.017,8.017h162.472c4.428,0,8.017-3.589,8.017-8.017V264.551  C460.693,260.124,457.105,256.534,452.676,256.534z"/>
<path d="M152.852,247.449V59.324c0-13.851-11.268-25.119-25.119-25.119H25.119C11.268,34.205,0,45.473,0,59.324v188.125  c0,13.851,11.268,25.119,25.119,25.119h102.614C141.583,272.568,152.852,261.3,152.852,247.449z M16.033,247.449v-9.086h77.495  c4.428,0,8.017-3.589,8.017-8.017s-3.588-8.017-8.017-8.017H16.033V84.443h77.495c4.428,0,8.017-3.589,8.017-8.017  s-3.588-8.017-8.017-8.017H16.033v-9.086c0-5.01,4.076-9.086,9.086-9.086h102.614c5.01,0,9.086,4.076,9.086,9.086v9.086h-9.086  c-4.428,0-8.017,3.589-8.017,8.017s3.588,8.017,8.017,8.017h9.086V222.33h-9.086c-4.428,0-8.017,3.589-8.017,8.017  s3.588,8.017,8.017,8.017h9.086v9.086c0,5.01-4.076,9.086-9.086,9.086H25.119C20.109,256.534,16.033,252.459,16.033,247.449z"/>
<path d="M164.752,375.999c-36.932-13.94-66.11-43.115-80.053-80.044c-1.564-4.142-6.189-6.231-10.332-4.669  c-4.142,1.564-6.232,6.19-4.668,10.332c15.568,41.238,48.15,73.816,89.391,89.381c0.932,0.353,1.889,0.518,2.829,0.518  c3.239,0,6.29-1.979,7.501-5.188C170.984,382.187,168.894,377.562,164.752,375.999z"/>
<path d="M180.92,113.919c10.519-2.536,21.394-3.823,32.324-3.823c28.466,0,55.768,8.627,78.958,24.949  c22.686,15.967,39.832,38.062,49.587,63.898c1.212,3.21,4.262,5.187,7.502,5.187c0.942,0,1.897-0.167,2.83-0.518  c4.142-1.564,6.232-6.19,4.668-10.332c-10.893-28.854-30.036-53.525-55.358-71.348c-25.906-18.233-56.401-27.87-88.187-27.87  c-12.195,0-24.337,1.437-36.085,4.27c-4.303,1.038-6.951,5.369-5.913,9.672C172.285,112.31,176.615,114.958,180.92,113.919z"/>
<g>
</g>
<g>
</g>
<g>
</g>
<g>
</g>
<g>
</g>
<g>
</g>
<g>
</g>
<g>
</g>
<g>
</g>
<g>
</g>
<g>
</g>
<g>
</g>
<g>
</g>
<g>
</g>
<g>
</g>
</svg>
