<?xml version="1.0" encoding="iso-8859-1"?>
<!-- Generator: Adobe Illustrator 19.0.0, SVG Export Plug-In . SVG Version: 6.00 Build 0)  -->
<svg xmlns="http://www.w3.org/2000/svg" xmlns:xlink="http://www.w3.org/1999/xlink" version="1.1" id="Layer_1" x="0px" y="0px" viewBox="0 0 512 512" style="enable-background:new 0 0 512 512;" xml:space="preserve">
<g>
	<path style="fill:#8695A3;" d="M255.997,99.031c7.12,0,14.151,0.372,21.08,1.089V70.008c0-11.644-9.438-21.081-21.08-21.081   c-11.644,0-21.081,9.437-21.081,21.081v30.111C241.846,99.402,248.88,99.031,255.997,99.031z"/>
	<path style="fill:#8695A3;" d="M99.077,135.21l16.284,19.748l0.416,0.505c10.14-9.74,21.295-18.428,33.287-25.901l-1.174-1.424   l-19.155-23.232c-7.408-8.983-20.691-10.262-29.677-2.855c-8.981,7.407-10.26,20.692-2.852,29.676L99.077,135.21z"/>
	<path style="fill:#8695A3;" d="M396.22,155.464l0.418-0.506l16.284-19.748l2.871-3.484c7.408-8.983,6.128-22.269-2.854-29.676   c-8.983-7.407-22.269-6.128-29.675,2.855l-19.155,23.232l-1.174,1.424C374.926,137.037,386.08,145.725,396.22,155.464z"/>
</g>
<circle style="fill:#5D6A7C;" cx="256.001" cy="301.488" r="202.451"/>
<path style="fill:#9AA9B5;" d="M385.613,405.613c-30.472,37.884-77.213,62.129-129.616,62.129  c-91.823,0-166.259-74.438-166.259-166.261s74.437-166.26,166.259-166.26s166.259,74.438,166.259,166.26  c0,30.312-8.111,58.731-22.284,83.203"/>
<circle style="fill:#EAE8E8;" cx="256.001" cy="301.488" r="143.437"/>
<g style="opacity:0.1;">
	<path style="fill:#231F20;" d="M137.807,301.482c0-74.965,57.51-136.486,130.813-142.88c-4.16-0.362-8.367-0.559-12.622-0.559   c-79.217,0-143.438,64.22-143.438,143.439c0,79.218,64.221,143.439,143.438,143.439c4.255,0,8.462-0.197,12.622-0.559   C195.318,437.968,137.807,376.445,137.807,301.482z"/>
</g>
<path style="fill:#D6D6D6;" d="M346.514,285.351h-75.793c-3.887-3.551-9.043-5.734-14.722-5.734c-5.758,0-10.98,2.242-14.885,5.881  c-0.679-0.087-1.364-0.147-2.065-0.147h-13.33c-8.907,0-16.13,7.222-16.13,16.13s7.223,16.13,16.13,16.13h13.33  c0.699,0,1.386-0.06,2.062-0.147c3.904,3.64,9.127,5.883,14.887,5.883c5.679,0,10.837-2.184,14.724-5.736h75.791  c8.909,0,16.13-7.222,16.13-16.13C362.643,292.573,355.423,285.351,346.514,285.351z"/>
<circle style="fill:#5D6A7C;" cx="256.001" cy="301.488" r="21.865"/>
<path style="fill:#6AC6D8;" d="M255.997,158.044v121.575l0,0c0.006,0,0.013,0,0.022,0c0.723,0.001,1.437,0.039,2.14,0.11  c0.326,0.031,0.641,0.092,0.962,0.139c0.374,0.054,0.75,0.098,1.117,0.17c0.426,0.084,0.84,0.198,1.258,0.306  c0.244,0.063,0.489,0.115,0.731,0.187c0.487,0.145,0.962,0.319,1.437,0.497c0.152,0.058,0.306,0.106,0.456,0.167  c0.529,0.212,1.044,0.451,1.55,0.701c0.082,0.04,0.163,0.075,0.244,0.117c0.548,0.28,1.082,0.586,1.602,0.91  c0.031,0.019,0.063,0.038,0.092,0.057c0.551,0.344,1.08,0.714,1.591,1.104c0.004,0.002,0.006,0.003,0.009,0.005  c0.525,0.398,1.029,0.82,1.514,1.263h75.791c8.909,0,16.13,7.222,16.13,16.13c0,0,0,0,0,0.001h36.792  C399.435,222.263,335.216,158.044,255.997,158.044z"/>
<g>
	<path style="fill:#231F20;" d="M255.997,127.157c-96.123,0-174.323,78.203-174.323,174.325   c0,96.124,78.202,174.326,174.323,174.326c53.069,0,102.603-23.742,135.9-65.139c2.793-3.471,2.242-8.548-1.229-11.339   c-3.471-2.794-8.548-2.241-11.339,1.229c-30.221,37.571-75.174,59.119-123.332,59.119c-87.228,0-158.194-70.967-158.194-158.196   s70.966-158.195,158.194-158.195s158.194,70.966,158.194,158.195c0,27.842-7.329,55.216-21.198,79.161   c-2.232,3.855-0.917,8.789,2.937,11.021c3.856,2.236,8.79,0.918,11.021-2.937c15.289-26.399,23.369-56.567,23.369-87.245   C430.322,205.359,352.12,127.157,255.997,127.157z"/>
	<path style="fill:#231F20;" d="M407.048,155.01l14.966-18.152c4.953-6.007,7.271-13.582,6.525-21.332   c-0.745-7.749-4.464-14.744-10.47-19.697c-5.208-4.293-11.789-6.657-18.529-6.657c-8.742,0-16.943,3.866-22.499,10.606   l-15.953,19.349c-22.944-13.274-48.615-22.33-75.945-26.132V77.423h13.331c11.562,0,20.969-8.774,20.969-19.558V19.558   C319.442,8.775,310.035,0,298.474,0h-84.95c-11.562,0-20.969,8.774-20.969,19.558v38.308c0,10.783,9.407,19.558,20.969,19.558   h13.33v15.57c-27.329,3.802-52.999,12.859-75.943,26.132l-15.953-19.35c-5.557-6.74-13.758-10.605-22.499-10.605   c-6.741,0-13.321,2.364-18.53,6.658c-12.398,10.225-14.167,28.63-3.945,41.026l14.968,18.156   c-36.783,37.922-59.466,89.594-59.466,146.473C45.484,417.563,139.921,512,255.999,512c116.08,0,210.517-94.437,210.517-210.517   C466.515,244.604,443.831,192.932,407.048,155.01z M389.487,110.035c2.482-3.01,6.145-4.736,10.053-4.736   c3.05,0,5.908,1.028,8.267,2.974c2.683,2.212,4.343,5.336,4.677,8.796c0.333,3.46-0.701,6.843-2.915,9.527l-14.15,17.164   c-6.502-5.75-13.368-11.105-20.531-16.017L389.487,110.035z M208.683,57.866V19.558c0-1.622,1.987-3.428,4.839-3.428h84.95   c2.852,0,4.839,1.807,4.839,3.428v38.308c0,1.622-1.987,3.428-4.839,3.428h-13.976c-3.677-11.922-14.7-20.431-27.816-20.431   c-0.088,0-0.174,0.01-0.263,0.011c-0.14-0.002-0.279-0.011-0.419-0.011c-13.036,0-24.099,8.604-27.813,20.431h-14.662   C210.67,61.293,208.683,59.487,208.683,57.866z M242.983,91.366V72.683c0.427-0.942,0.679-1.982,0.712-3.078   c0.213-6.955,5.736-12.416,12.638-12.596c7.021,0.181,12.68,5.936,12.68,13v21.357c-0.269-0.017-0.539-0.023-0.808-0.038   c-1.496-0.086-2.997-0.153-4.501-0.206c-0.542-0.02-1.083-0.046-1.624-0.062c-2.021-0.058-4.048-0.094-6.082-0.094   s-4.06,0.037-6.082,0.094c-0.542,0.016-1.083,0.042-1.625,0.062c-1.504,0.054-3.004,0.12-4.5,0.206   C243.521,91.344,243.252,91.348,242.983,91.366z M104.188,108.273c2.36-1.946,5.22-2.974,8.269-2.974   c3.908,0,7.572,1.726,10.054,4.736l14.6,17.708c-7.163,4.91-14.029,10.266-20.533,16.016l-14.15-17.164   C97.862,121.059,98.652,112.839,104.188,108.273z M255.997,495.87c-107.185,0-194.386-87.202-194.386-194.387   c0-100.43,76.555-183.313,174.374-193.363c1.075-0.11,2.155-0.2,3.234-0.292c0.552-0.047,1.1-0.104,1.652-0.147   c10.048-0.772,20.206-0.772,30.254,0c0.545,0.043,1.087,0.099,1.631,0.145c1.086,0.092,2.172,0.183,3.254,0.294   c97.819,10.05,174.374,92.934,174.374,193.363C450.385,408.668,363.183,495.87,255.997,495.87z"/>
	<path style="fill:#231F20;" d="M387.496,226.303c-0.091-0.192-0.185-0.385-0.294-0.573c-0.142-0.245-0.295-0.479-0.457-0.703   c-13.151-22.403-31.89-41.143-54.293-54.293c-0.225-0.162-0.459-0.315-0.703-0.457c-0.188-0.109-0.381-0.202-0.573-0.294   c-22.168-12.723-47.838-20.004-75.179-20.004c-27.343,0-53.018,7.283-75.188,20.008c-0.189,0.09-0.38,0.182-0.565,0.288   c-0.245,0.142-0.48,0.295-0.704,0.457c-22.399,13.149-41.136,31.883-54.286,54.282c-0.166,0.228-0.322,0.466-0.466,0.715   c-0.117,0.203-0.219,0.411-0.317,0.619c-12.698,22.142-19.968,47.777-19.978,75.078c0,0.019-0.003,0.037-0.003,0.056   c0,0.019,0.003,0.037,0.003,0.056c0.01,27.3,7.28,52.935,19.977,75.076c0.098,0.209,0.2,0.417,0.317,0.62   c0.109,0.188,0.238,0.358,0.358,0.534c13.153,22.475,31.928,41.274,54.384,54.457c0.227,0.165,0.462,0.319,0.711,0.462   c0.138,0.08,0.282,0.137,0.422,0.208c22.202,12.777,47.929,20.09,75.332,20.09c27.41,0,53.143-7.316,75.349-20.1   c0.134-0.068,0.271-0.123,0.402-0.198c0.245-0.142,0.48-0.295,0.704-0.457c22.469-13.19,41.253-32,54.409-54.49   c0.115-0.168,0.237-0.328,0.34-0.506c0.109-0.188,0.202-0.382,0.295-0.575c12.722-22.168,20.003-47.838,20.003-75.178   C407.5,274.142,400.218,248.471,387.496,226.303z M369.326,293.416c-0.011-0.03-0.025-0.06-0.037-0.09   c-0.183-0.51-0.384-1.01-0.599-1.502c-0.047-0.11-0.098-0.217-0.147-0.326c-0.212-0.465-0.434-0.923-0.673-1.371   c-0.023-0.042-0.043-0.085-0.066-0.127c-0.258-0.475-0.535-0.94-0.824-1.396c-0.067-0.105-0.134-0.211-0.202-0.315   c-0.294-0.449-0.598-0.892-0.92-1.32c-0.034-0.045-0.07-0.088-0.104-0.133c-0.301-0.396-0.616-0.78-0.941-1.155   c-0.077-0.089-0.154-0.18-0.232-0.268c-0.352-0.396-0.715-0.78-1.091-1.151c-0.073-0.073-0.149-0.143-0.225-0.214   c-0.343-0.33-0.696-0.651-1.058-0.96c-0.071-0.061-0.14-0.124-0.211-0.183c-0.406-0.34-0.826-0.663-1.255-0.976   c-0.1-0.073-0.201-0.143-0.302-0.215c-0.422-0.298-0.852-0.586-1.293-0.858c-0.027-0.017-0.053-0.034-0.08-0.051   c-0.461-0.282-0.936-0.542-1.417-0.793c-0.113-0.058-0.225-0.116-0.339-0.173c-0.481-0.241-0.969-0.47-1.468-0.68   c-0.066-0.027-0.133-0.052-0.2-0.078c-0.458-0.187-0.923-0.359-1.395-0.518c-0.11-0.038-0.219-0.076-0.329-0.112   c-0.515-0.166-1.038-0.316-1.568-0.447c-0.108-0.027-0.216-0.049-0.325-0.075c-0.486-0.114-0.979-0.214-1.475-0.298   c-0.082-0.014-0.162-0.03-0.245-0.043c-0.551-0.087-1.108-0.152-1.669-0.201c-0.127-0.011-0.255-0.02-0.383-0.029   c-0.576-0.042-1.156-0.07-1.742-0.07h-72.929c-2.839-2.069-6.054-3.65-9.522-4.621v-96.171v-10.139   c0.446,0.026,0.893,0.055,1.337,0.085c0.465,0.032,0.93,0.062,1.395,0.099c0.669,0.053,1.334,0.116,2,0.178   c0.433,0.041,0.868,0.077,1.299,0.123c0.726,0.075,1.447,0.161,2.169,0.248c0.369,0.045,0.738,0.084,1.105,0.131   c0.914,0.117,1.825,0.247,2.733,0.384c0.172,0.026,0.346,0.047,0.518,0.073c1.094,0.168,2.182,0.348,3.267,0.543   c0.183,0.032,0.363,0.07,0.545,0.103c0.889,0.162,1.778,0.331,2.661,0.512c0.334,0.068,0.667,0.143,1,0.214   c0.73,0.155,1.459,0.311,2.185,0.476c0.379,0.087,0.755,0.181,1.133,0.27c0.676,0.161,1.353,0.324,2.025,0.495   c0.397,0.101,0.791,0.208,1.187,0.313c0.651,0.172,1.3,0.346,1.946,0.528c0.401,0.113,0.801,0.229,1.201,0.346   c0.638,0.185,1.274,0.374,1.908,0.569c0.4,0.123,0.799,0.248,1.197,0.375c0.63,0.201,1.259,0.405,1.886,0.614   c0.392,0.131,0.785,0.263,1.176,0.399c0.632,0.217,1.262,0.441,1.891,0.668c0.379,0.137,0.756,0.273,1.132,0.413   c0.641,0.238,1.277,0.482,1.914,0.729c0.359,0.14,0.718,0.277,1.075,0.42c0.66,0.263,1.316,0.533,1.971,0.806   c0.326,0.135,0.654,0.27,0.979,0.409c0.704,0.3,1.403,0.609,2.1,0.92c0.271,0.12,0.544,0.239,0.814,0.361   c0.812,0.369,1.618,0.747,2.421,1.132c0.151,0.072,0.303,0.141,0.454,0.214c0.63,0.304,1.254,0.62,1.879,0.934l-5.06,8.766   c-2.227,3.858-0.905,8.791,2.952,11.017c1.271,0.734,2.657,1.082,4.025,1.082c2.787,0,5.498-1.447,6.992-4.034l5.048-8.743   c0.261,0.173,0.524,0.342,0.784,0.516c0.281,0.188,0.559,0.381,0.839,0.571c0.596,0.406,1.188,0.817,1.776,1.232   c0.283,0.2,0.563,0.401,0.844,0.603c0.581,0.417,1.158,0.838,1.732,1.264c0.277,0.205,0.554,0.412,0.829,0.619   c0.576,0.434,1.148,0.874,1.718,1.317c0.263,0.205,0.527,0.411,0.789,0.618c0.581,0.459,1.156,0.925,1.729,1.393   c0.242,0.199,0.486,0.396,0.727,0.596c0.597,0.495,1.188,0.998,1.776,1.502c0.21,0.18,0.42,0.358,0.629,0.539   c0.639,0.556,1.27,1.118,1.898,1.685c0.152,0.138,0.306,0.272,0.458,0.41c0.762,0.695,1.518,1.397,2.265,2.109   c0.012,0.012,0.024,0.023,0.037,0.033c1.566,1.493,3.095,3.023,4.587,4.587c0.014,0.015,0.028,0.029,0.041,0.044   c0.71,0.745,1.412,1.499,2.104,2.26c0.133,0.147,0.265,0.297,0.397,0.444c0.571,0.632,1.137,1.268,1.696,1.911   c0.18,0.206,0.356,0.417,0.534,0.625c0.506,0.589,1.01,1.182,1.505,1.781c0.2,0.241,0.397,0.485,0.596,0.727   c0.468,0.572,0.932,1.146,1.391,1.727c0.209,0.263,0.415,0.529,0.622,0.795c0.442,0.567,0.88,1.137,1.313,1.711   c0.21,0.277,0.417,0.556,0.625,0.836c0.425,0.572,0.844,1.146,1.259,1.726c0.203,0.284,0.406,0.567,0.608,0.852   c0.413,0.585,0.82,1.174,1.225,1.766c0.194,0.283,0.387,0.566,0.579,0.849c0.173,0.259,0.342,0.52,0.514,0.781l-8.741,5.048   c-3.858,2.227-5.179,7.159-2.952,11.017c1.495,2.587,4.204,4.034,6.992,4.034c1.369,0,2.756-0.348,4.025-1.082l8.765-5.062   c0.313,0.624,0.628,1.245,0.932,1.873c0.078,0.161,0.153,0.326,0.23,0.487c0.38,0.793,0.754,1.589,1.117,2.39   c0.125,0.274,0.244,0.553,0.368,0.828c0.309,0.693,0.615,1.385,0.912,2.083c0.142,0.332,0.279,0.668,0.417,1.001   c0.27,0.648,0.538,1.297,0.798,1.951c0.144,0.361,0.284,0.726,0.425,1.088c0.245,0.631,0.487,1.264,0.724,1.899   c0.142,0.383,0.281,0.767,0.419,1.151c0.225,0.623,0.445,1.246,0.661,1.873c0.137,0.396,0.27,0.793,0.403,1.189   c0.208,0.623,0.411,1.247,0.61,1.874c0.127,0.401,0.254,0.803,0.377,1.205c0.194,0.631,0.382,1.265,0.566,1.899   c0.117,0.403,0.236,0.805,0.348,1.211c0.181,0.643,0.354,1.289,0.525,1.936c0.105,0.399,0.213,0.797,0.315,1.197   c0.17,0.668,0.331,1.34,0.492,2.011c0.091,0.383,0.186,0.763,0.274,1.148c0.165,0.717,0.318,1.44,0.472,2.162   c0.072,0.341,0.149,0.68,0.218,1.022c0.176,0.866,0.341,1.736,0.501,2.608c0.037,0.201,0.078,0.4,0.114,0.601   c0.194,1.083,0.374,2.169,0.542,3.26c0.028,0.182,0.051,0.366,0.077,0.548c0.134,0.898,0.262,1.798,0.38,2.701   c0.048,0.377,0.089,0.757,0.134,1.134c0.086,0.713,0.171,1.425,0.245,2.141c0.045,0.439,0.084,0.88,0.125,1.319   c0.062,0.659,0.124,1.318,0.176,1.98c0.038,0.469,0.068,0.94,0.1,1.41c0.03,0.442,0.058,0.884,0.084,1.327L369.326,293.416z    M265.283,311.657c-0.953,0.87-2.008,1.594-3.133,2.16c-0.025,0.013-0.051,0.024-0.075,0.037c-0.344,0.171-0.696,0.327-1.053,0.468   c-0.067,0.026-0.135,0.049-0.203,0.074c-0.322,0.122-0.647,0.233-0.977,0.33c-0.12,0.035-0.244,0.063-0.367,0.095   c-0.286,0.075-0.573,0.148-0.863,0.205c-0.203,0.04-0.411,0.065-0.617,0.095c-0.22,0.032-0.44,0.072-0.663,0.094   c-0.439,0.042-0.883,0.068-1.332,0.068c-0.454,0-0.902-0.025-1.345-0.068c-0.213-0.021-0.422-0.06-0.632-0.09   c-0.223-0.032-0.446-0.059-0.666-0.102c-0.275-0.055-0.546-0.126-0.817-0.197c-0.144-0.038-0.291-0.07-0.433-0.112   c-0.311-0.092-0.617-0.201-0.92-0.315c-0.094-0.035-0.189-0.067-0.283-0.104c-0.335-0.134-0.666-0.285-0.99-0.446   c-0.053-0.026-0.106-0.049-0.159-0.076c-0.355-0.182-0.703-0.381-1.043-0.594c-0.016-0.01-0.033-0.019-0.049-0.03   c-0.723-0.459-1.409-0.987-2.046-1.582c-0.016-0.015-0.034-0.028-0.051-0.043c-2.678-2.518-4.361-6.082-4.361-10.039   c0-3.969,1.694-7.542,4.385-10.062c0.009-0.008,0.018-0.014,0.027-0.023c0.638-0.594,1.323-1.122,2.044-1.58   c0.018-0.012,0.038-0.023,0.056-0.034c0.339-0.213,0.685-0.41,1.039-0.59c0.052-0.027,0.105-0.051,0.157-0.076   c0.326-0.161,0.656-0.312,0.993-0.448c0.091-0.037,0.186-0.068,0.28-0.102c0.304-0.115,0.611-0.224,0.923-0.316   c0.141-0.042,0.286-0.073,0.43-0.111c0.273-0.071,0.545-0.143,0.823-0.198c0.215-0.041,0.436-0.068,0.654-0.1   c0.214-0.031,0.427-0.071,0.644-0.092c0.443-0.043,0.89-0.069,1.344-0.069c0.449,0,0.894,0.025,1.332,0.068   c0.04,0.004,0.078,0.013,0.118,0.017l0.858,0.128c0.103,0.015,0.205,0.028,0.305,0.044c0.184,0.035,0.365,0.086,0.546,0.13   c0.037,0.01,0.074,0.018,0.111,0.028l0.551,0.137c0.006,0.001,0.013,0.003,0.019,0.004c0.296,0.087,0.587,0.189,0.876,0.296   c0.022,0.009,0.048,0.018,0.069,0.026c0.08,0.031,0.173,0.065,0.265,0.096c0.322,0.128,0.638,0.27,0.948,0.423   c0.047,0.023,0.09,0.043,0.139,0.067l0.04,0.019c0.334,0.17,0.661,0.354,0.983,0.551c0.037,0.023,0.068,0.041,0.106,0.065   c0.267,0.167,0.524,0.351,0.781,0.537c0.086,0.062,0.169,0.112,0.255,0.177c0.337,0.256,0.665,0.527,0.98,0.815   c0.02,0.018,0.042,0.033,0.062,0.052c2.731,2.523,4.454,6.122,4.454,10.123c0,4.002-1.723,7.599-4.453,10.123   C265.325,311.624,265.303,311.639,265.283,311.657z M227.182,309.546h-1.464c-4.448,0-8.065-3.617-8.065-8.065   s3.617-8.065,8.065-8.065h1.464c-0.72,2.568-1.113,5.271-1.113,8.066C226.069,304.276,226.463,306.979,227.182,309.546z    M284.815,293.416h61.699c0.556,0,1.099,0.057,1.624,0.165c3.671,0.754,6.441,4.01,6.441,7.901c0,4.446-3.617,8.064-8.065,8.064   h-61.699c0.719-2.568,1.113-5.27,1.113-8.064C285.928,298.688,285.534,295.984,284.815,293.416z M330.523,414.436l-5.048-8.742   c-2.226-3.857-7.157-5.177-11.017-2.952c-3.857,2.226-5.179,7.158-2.952,11.017l5.06,8.766   c-15.966,8.022-33.726,12.976-52.506,14.085v-10.138c0-4.455-3.61-8.065-8.065-8.065c-4.455,0-8.065,3.61-8.065,8.065v10.138   c-18.78-1.109-36.54-6.063-52.507-14.086l5.062-8.766c2.227-3.857,0.906-8.79-2.952-11.017c-3.855-2.225-8.79-0.905-11.017,2.952   l-5.048,8.742c-15.244-10.092-28.335-23.183-38.427-38.427l8.742-5.048c3.858-2.227,5.179-7.159,2.952-11.017   c-2.227-3.857-7.162-5.178-11.017-2.952l-8.765,5.062c-8.022-15.966-12.975-33.726-14.085-52.506h10.137   c4.455,0,8.065-3.61,8.065-8.065s-3.61-8.065-8.065-8.065h-10.137c1.109-18.779,6.063-36.539,14.085-52.506l8.765,5.06   c1.271,0.733,2.657,1.082,4.025,1.082c2.787,0,5.498-1.446,6.992-4.034c2.227-3.857,0.905-8.79-2.952-11.017l-8.741-5.046   c10.092-15.245,23.183-28.336,38.427-38.428l5.048,8.743c1.494,2.587,4.204,4.034,6.992,4.034c1.368,0,2.755-0.348,4.025-1.082   c3.857-2.226,5.179-7.158,2.952-11.017l-5.06-8.766c15.966-8.023,33.726-12.976,52.506-14.086v10.139v96.172   c-0.384,0.108-0.765,0.22-1.142,0.342c-0.055,0.018-0.11,0.038-0.165,0.056c-1.429,0.472-2.81,1.051-4.135,1.723   c-0.051,0.026-0.1,0.051-0.151,0.076c-1.374,0.709-2.688,1.518-3.929,2.423h-12.693c-13.34,0-24.195,10.854-24.195,24.195   s10.854,24.195,24.195,24.195h12.69c1.243,0.906,2.558,1.716,3.935,2.426c0.047,0.025,0.095,0.048,0.142,0.072   c1.327,0.674,2.709,1.253,4.14,1.726c0.055,0.018,0.109,0.038,0.163,0.056c0.688,0.224,1.387,0.422,2.097,0.595   c0.085,0.022,0.17,0.039,0.255,0.059c0.676,0.159,1.361,0.299,2.055,0.412c0.04,0.006,0.079,0.015,0.118,0.022   c0.694,0.11,1.396,0.19,2.103,0.251c0.151,0.013,0.3,0.024,0.451,0.034c0.705,0.049,1.414,0.085,2.131,0.085   c0.718,0,1.429-0.034,2.136-0.085c0.144-0.011,0.289-0.02,0.433-0.033c0.718-0.061,1.431-0.143,2.135-0.255   c0.008-0.001,0.015-0.003,0.023-0.004c0.741-0.117,1.471-0.268,2.194-0.44c0.047-0.011,0.095-0.021,0.142-0.033   c3.853-0.936,7.415-2.618,10.527-4.886h72.926c10.513,0,19.477-6.742,22.808-16.129h11.666h10.136   c-1.109,18.779-6.063,36.539-14.085,52.507l-8.767-5.063c-3.856-2.225-8.789-0.905-11.017,2.952   c-2.227,3.857-0.906,8.79,2.952,11.017l8.743,5.049C358.858,391.253,345.768,404.344,330.523,414.436z"/>
</g>
<g>
</g>
<g>
</g>
<g>
</g>
<g>
</g>
<g>
</g>
<g>
</g>
<g>
</g>
<g>
</g>
<g>
</g>
<g>
</g>
<g>
</g>
<g>
</g>
<g>
</g>
<g>
</g>
<g>
</g>
</svg>
